<?xml version="1.0" encoding="UTF-8" standalone="no"?>
<svg
   xmlns:dc="http://purl.org/dc/elements/1.1/"
   xmlns:cc="http://creativecommons.org/ns#"
   xmlns:rdf="http://www.w3.org/1999/02/22-rdf-syntax-ns#"
   xmlns:svg="http://www.w3.org/2000/svg"
   xmlns="http://www.w3.org/2000/svg"
   xmlns:sodipodi="http://sodipodi.sourceforge.net/DTD/sodipodi-0.dtd"
   xmlns:inkscape="http://www.inkscape.org/namespaces/inkscape"
   inkscape:version="1.0 (4035a4fb49, 2020-05-01)"
   id="svg8"
   version="1.1"
   viewBox="0 0 380.99999 129.64583"
   height="489.99997"
   width="1440"
   sodipodi:docname="wave-1.svg">
  <defs
     id="defs2">
    <linearGradient
       y2="0"
       y1="840"
       x2="0"
       x1="0"
       id="sw-gradient-2"
       gradientTransform="matrix(0.45357142,0,0,0.15434027,-181.42857,-9.638391)"
       gradientUnits="userSpaceOnUse">
      <stop
         id="stop1510"
         offset="0%"
         stop-color="rgba(0, 0, 0, 1)" />
      <stop
         id="stop1512"
         offset="100%"
         stop-color="rgba(255, 255, 255, 1)" />
    </linearGradient>
  </defs>
  <sodipodi:namedview
     units="px"
     showborder="false"
     inkscape:guide-bbox="true"
     showguides="true"
     showgrid="false"
     inkscape:document-rotation="0"
     inkscape:current-layer="layer1"
     inkscape:document-units="px"
     inkscape:cy="367.14284"
     inkscape:cx="728.57141"
     inkscape:zoom="0.35"
     inkscape:pageshadow="2"
     inkscape:pageopacity="0.0"
     borderopacity="1.0"
     bordercolor="#666666"
     pagecolor="#ffffff"
     id="base"
     inkscape:window-width="1536"
     inkscape:window-height="817"
     inkscape:window-x="-8"
     inkscape:window-y="-8"
     inkscape:window-maximized="1" />
  <metadata
     id="metadata5">
    <rdf:RDF>
      <cc:Work
         rdf:about="">
        <dc:format>image/svg+xml</dc:format>
        <dc:type
           rdf:resource="http://purl.org/dc/dcmitype/StillImage" />
        <dc:title />
        <dc:creator>
          <cc:Agent>
            <dc:title>Albertus Janse Van Rensburg</dc:title>
          </cc:Agent>
        </dc:creator>
      </cc:Work>
    </rdf:RDF>
  </metadata>
  <g
     id="layer1"
     inkscape:groupmode="layer"
     inkscape:label="Layer 1"
     transform="translate(86.934519,-51.02679)">
    <path
       id="path1517"
       d="m -86.934519,115.84971 15.875,25.92916 15.875,-38.89375 15.875,51.85834 15.875,-90.752086 15.8750002,25.929166 15.875001,64.82292 15.8749998,-77.787503 15.875001,38.893753 15.875,25.92916 h 15.875 l 15.875,-12.96458 15.874997,-25.92917 15.875,12.96459 15.875,12.96458 15.875,-51.858333 h 15.875 l 15.875,51.858333 h 15.875 l 15.875,-38.89375 15.875,77.7875 15.875,-90.752083 15.875,-12.964583 15.875,-12.964584 h 15.875 v 129.64583 h -15.875 -15.875 -15.875 -15.875 -15.875 -15.875 -15.875 -15.875 -15.875 -15.875 -15.875 -15.875 -15.874997 -15.875 -15.875 -15.875 -15.875001 -15.8749998 -15.875001 -15.8750002 -15.875 -15.875 -15.875 -15.875 z"
       fill="url(#sw-gradient-2)"
       style="opacity:0.35;fill:#000000;stroke-width:0.264583" />
  </g>
</svg>
