<?xml version="1.0" encoding="UTF-8" standalone="no"?>
<svg
   xmlns:dc="http://purl.org/dc/elements/1.1/"
   xmlns:cc="http://creativecommons.org/ns#"
   xmlns:rdf="http://www.w3.org/1999/02/22-rdf-syntax-ns#"
   xmlns:svg="http://www.w3.org/2000/svg"
   xmlns="http://www.w3.org/2000/svg"
   xmlns:sodipodi="http://sodipodi.sourceforge.net/DTD/sodipodi-0.dtd"
   xmlns:inkscape="http://www.inkscape.org/namespaces/inkscape"
   inkscape:version="1.0 (4035a4fb49, 2020-05-01)"
   id="svg8"
   version="1.1"
   viewBox="0 0 380.99999 129.64584"
   height="490"
   width="1440"
   sodipodi:docname="wave-3.svg">
  <defs
     id="defs2" />
  <sodipodi:namedview
     units="px"
     showborder="false"
     inkscape:guide-bbox="true"
     showguides="true"
     showgrid="false"
     inkscape:document-rotation="0"
     inkscape:current-layer="layer1"
     inkscape:document-units="px"
     inkscape:cy="587.85714"
     inkscape:cx="785.71428"
     inkscape:zoom="0.35"
     inkscape:pageshadow="2"
     inkscape:pageopacity="0.0"
     borderopacity="1.0"
     bordercolor="#666666"
     pagecolor="#ffffff"
     id="base"
     inkscape:window-width="1536"
     inkscape:window-height="817"
     inkscape:window-x="-8"
     inkscape:window-y="-8"
     inkscape:window-maximized="1" />
  <metadata
     id="metadata5">
    <rdf:RDF>
      <cc:Work
         rdf:about="">
        <dc:format>image/svg+xml</dc:format>
        <dc:type
           rdf:resource="http://purl.org/dc/dcmitype/StillImage" />
        <dc:title />
        <dc:creator>
          <cc:Agent>
            <dc:title>Albertus Janse Van Rensburg</dc:title>
          </cc:Agent>
        </dc:creator>
      </cc:Work>
    </rdf:RDF>
  </metadata>
  <g
     id="layer1"
     inkscape:groupmode="layer"
     inkscape:label="Layer 1"
     transform="translate(102.05357,7.3705339)">
    <path
       id="path1499"
       d="m -102.05357,57.452383 15.874999,12.964583 h 15.875 15.875 l 15.875,-51.858333 15.875,51.858333 15.8749998,-51.858333 15.875,90.752087 15.8750002,-64.822921 15.875,-12.964583 15.875,51.858334 15.875,12.964586 15.875,-77.787503 15.875001,-12.9645839 15.875,90.7520869 15.875,-64.82292 15.875,-38.8937499 15.875,51.8583329 15.875,64.822921 h 15.875 15.875 l 15.875,-103.7166709 15.875,103.7166709 15.875,-38.893754 15.875,38.893754 v 12.96458 h -15.875 -15.875 -15.875 -15.875 -15.875 -15.875 -15.875 -15.875 -15.875 -15.875 -15.875 -15.875001 -15.875 -15.875 -15.875 -15.875 -15.8750002 -15.875 -15.8749998 -15.875 -15.875 -15.875 -15.875 -15.874999 z"
       fill="url(#sw-gradient-0)"
       style="opacity:0.35;fill:#000000;stroke-width:0.264583" />
  </g>
</svg>
