<?xml version="1.0" encoding="UTF-8" standalone="no"?>
<svg
   xmlns:dc="http://purl.org/dc/elements/1.1/"
   xmlns:cc="http://creativecommons.org/ns#"
   xmlns:rdf="http://www.w3.org/1999/02/22-rdf-syntax-ns#"
   xmlns:svg="http://www.w3.org/2000/svg"
   xmlns="http://www.w3.org/2000/svg"
   xmlns:sodipodi="http://sodipodi.sourceforge.net/DTD/sodipodi-0.dtd"
   xmlns:inkscape="http://www.inkscape.org/namespaces/inkscape"
   inkscape:version="1.0 (4035a4fb49, 2020-05-01)"
   id="svg8"
   version="1.1"
   viewBox="0 0 380.99999 129.64584"
   height="490"
   width="1440"
   sodipodi:docname="wave-2.svg">
  <defs
     id="defs2" />
  <sodipodi:namedview
     units="px"
     showborder="false"
     inkscape:guide-bbox="true"
     showguides="true"
     showgrid="false"
     inkscape:document-rotation="0"
     inkscape:current-layer="layer1"
     inkscape:document-units="px"
     inkscape:cy="130.71427"
     inkscape:cx="894.28571"
     inkscape:zoom="0.35"
     inkscape:pageshadow="2"
     inkscape:pageopacity="0.0"
     borderopacity="1.0"
     bordercolor="#666666"
     pagecolor="#ffffff"
     id="base"
     inkscape:window-width="1536"
     inkscape:window-height="817"
     inkscape:window-x="-8"
     inkscape:window-y="-8"
     inkscape:window-maximized="1" />
  <metadata
     id="metadata5">
    <rdf:RDF>
      <cc:Work
         rdf:about="">
        <dc:format>image/svg+xml</dc:format>
        <dc:type
           rdf:resource="http://purl.org/dc/dcmitype/StillImage" />
        <dc:title />
        <dc:creator>
          <cc:Agent>
            <dc:title>Albertus Janse Van Rensburg</dc:title>
          </cc:Agent>
        </dc:creator>
      </cc:Work>
    </rdf:RDF>
  </metadata>
  <g
     id="layer1"
     inkscape:groupmode="layer"
     inkscape:label="Layer 1"
     transform="translate(130.77976,-113.58185)">
    <path
       id="path1508"
       d="m -130.77976,152.4756 15.875,77.7875 15.874998,-38.89375 15.875,38.89375 15.875,-12.96458 15.875,-64.82292 15.875,12.96458 15.875,51.85834 h 15.8750003 l 15.8749997,-77.78751 15.875,12.96459 15.875,-38.89375 15.875,116.68125 15.875,-103.71667 15.875,64.82292 15.875002,-12.96459 15.875,51.85834 15.875,-77.7875 15.875,25.92916 h 15.875 l 15.875,25.92917 h 15.875 l 15.875,-25.92917 15.875,51.85834 15.875,-64.82292 v 77.7875 h -15.875 -15.875 -15.875 -15.875 -15.875 -15.875 -15.875 -15.875 -15.875 -15.875002 -15.875 -15.875 -15.875 -15.875 -15.875 -15.8749997 -15.8750003 -15.875 -15.875 -15.875 -15.875 -15.875 -15.874998 -15.875 z"
       fill="url(#sw-gradient-1)"
       style="opacity:0.35;fill:#000000;stroke-width:0.264583" />
  </g>
</svg>
